<svg width="375" height="213" viewBox="0 0 375 213" fill="none" xmlns="http://www.w3.org/2000/svg">
<path d="M99.349 212.85L0 7.31689L159.865 110.084L99.349 212.85Z" fill="#8CE2D0"/>
<path d="M99.5753 212.85V7.31689H220.155L99.5753 212.85Z" fill="#C2F587" fill-opacity="0.7"/>
<path d="M226.091 180.202L374.963 30.8037C363.191 13.6065 285.784 -28.9194 226.054 30.8409C170.399 86.5251 199.381 154.862 226.091 180.202Z" fill="#F66F92" fill-opacity="0.8"/>
<path d="M374.847 179.687L225.485 30.7778C208.285 42.5457 165.74 119.942 225.485 179.687C281.156 235.356 349.5 206.391 374.847 179.687Z" fill="#A958FF"/>
<path d="M226.091 180.202L374.963 30.8037C363.191 13.6065 285.784 -28.9194 226.054 30.8409C170.399 86.5251 199.381 154.862 226.091 180.202Z" fill="#F193AB" fill-opacity="0.7"/>
</svg>
