<svg width="59" height="33" viewBox="0 0 59 33" fill="none" xmlns="http://www.w3.org/2000/svg">
<path d="M15.403 32.9999L0 1.13428L24.7852 17.0671L15.403 32.9999Z" fill="#8CE2D0"/>
<path d="M15.438 32.9999V1.13428H34.1325L15.438 32.9999Z" fill="#C2F587" fill-opacity="0.7"/>
<path d="M35.053 27.9384L58.1339 4.77577C56.3087 2.10954 44.3077 -4.48363 35.0472 4.78155C26.4185 13.4148 30.9119 24.0096 35.053 27.9384Z" fill="#F66F92" fill-opacity="0.8"/>
<path d="M58.1158 27.8586L34.959 4.77197C32.2923 6.59645 25.6961 18.5959 34.959 27.8586C43.5901 36.4896 54.1861 31.9988 58.1158 27.8586Z" fill="#A958FF"/>
<path d="M35.053 27.9384L58.1339 4.77577C56.3087 2.10954 44.3077 -4.48363 35.0472 4.78155C26.4185 13.4148 30.9119 24.0096 35.053 27.9384Z" fill="#F193AB" fill-opacity="0.7"/>
</svg>
